[2026-03-03T15:42:34.821Z] Pipeline process started.
[2026-03-03T15:42:35.725Z] Downloading YouTube: https://youtube.com/shorts/90-7ISyQWuA?si=7kI8iPC-BBn-Zwib
[2026-03-03T15:42:41.906Z] YouTube download completed.
[2026-03-03T15:42:42.466Z] Extracting audio with FFmpeg...
[2026-03-03T15:42:44.268Z] Audio extraction successful.
[2026-03-03T15:42:44.270Z] Starting transcription...
[2026-03-03T15:42:47.160Z] Starting translation...
[2026-03-03T15:42:50.810Z] Generating segment 1/7: "İran rejiminin sərhədləri xari..."
[2026-03-03T15:42:54.163Z] Segment 0 saved (45504 bytes).
[2026-03-03T15:42:54.167Z] Generating segment 2/7: "Biz razılaşma əldə etdiyimizə ..."
[2026-03-03T15:42:56.823Z] Segment 1 saved (30672 bytes).
[2026-03-03T15:42:56.829Z] Generating segment 3/7: "Onlar geri qayıtdılar və biz r..."
[2026-03-03T15:42:59.879Z] Segment 2 saved (52416 bytes).
[2026-03-03T15:42:59.886Z] Generating segment 4/7: "bu insanlarla razılaşma mümkün..."
[2026-03-03T15:43:03.154Z] Segment 3 saved (75312 bytes).
[2026-03-03T15:43:03.168Z] Generating segment 5/7: "Prezidentimiz İrandan başlanan..."
[2026-03-03T15:43:05.905Z] Segment 4 saved (56448 bytes).
[2026-03-03T15:43:05.911Z] Generating segment 6/7: "Təəssüflər ki, danışıqların əs..."
[2026-03-03T15:43:08.905Z] Segment 5 saved (27792 bytes).
[2026-03-03T15:43:08.909Z] Generating segment 7/7: "Ağ Evdə real problemimiz var...."
[2026-03-03T15:43:11.399Z] Segment 6 saved (17856 bytes).
[2026-03-03T15:43:11.403Z] Running FFmpeg: C:\Users\fullm\Downloads\dubverse-saas\backend\node_modules\ffmpeg-static\ffmpeg.exe -i C:\Users\fullm\Downloads\dubverse-saas\tmp\uploads\1c2e7c90-c68c-497b-96dc-a81b0f0db542\audio.mp3 -i C:\Users\fullm\Downloads\dubverse-saas\tmp\uploads\1c2e7c90-c68c-497b-96dc-a81b0f0db542\segments\seg_0.mp3 -i C:\Users\fullm\Downloads\dubverse-saas\tmp\uploads\1c2e7c90-c68c-497b-96dc-a81b0f0db542\segments\seg_1.mp3 -i C:\Users\fullm\Downloads\dubverse-saas\tmp\uploads\1c2e7c90-c68c-497b-96dc-a81b0f0db542\segments\seg_2.mp3 -i C:\Users\fullm\Downloads\dubverse-saas\tmp\uploads\1c2e7c90-c68c-497b-96dc-a81b0f0db542\segments\seg_3.mp3 -i C:\Users\fullm\Downloads\dubverse-saas\tmp\uploads\1c2e7c90-c68c-497b-96dc-a81b0f0db542\segments\seg_4.mp3 -i C:\Users\fullm\Downloads\dubverse-saas\tmp\uploads\1c2e7c90-c68c-497b-96dc-a81b0f0db542\segments\seg_5.mp3 -i C:\Users\fullm\Downloads\dubverse-saas\tmp\uploads\1c2e7c90-c68c-497b-96dc-a81b0f0db542\segments\seg_6.mp3 -filter_complex [1:a]aformat=sample_rates=44100:channel_layouts=stereo,adelay=0|0[s0];[2:a]aformat=sample_rates=44100:channel_layouts=stereo,adelay=6200|6200[s1];[3:a]aformat=sample_rates=44100:channel_layouts=stereo,adelay=11980|11980[s2];[4:a]aformat=sample_rates=44100:channel_layouts=stereo,adelay=15260|15260[s3];[5:a]aformat=sample_rates=44100:channel_layouts=stereo,adelay=19760|19760[s4];[6:a]aformat=sample_rates=44100:channel_layouts=stereo,adelay=25520|25520[s5];[7:a]aformat=sample_rates=44100:channel_layouts=stereo,adelay=31040|31040[s6];[0:a]aformat=sample_rates=44100:channel_layouts=stereo,volume=0[bg];[bg][s0][s1][s2][s3][s4][s5][s6]amix=inputs=8:duration=first:dropout_transition=999,volume=16[out] -map [out] -acodec libmp3lame -ar 44100 -b:a 192k -y C:\Users\fullm\Downloads\dubverse-saas\tmp\uploads\1c2e7c90-c68c-497b-96dc-a81b0f0db542\dubbed_audio.mp3
[2026-03-03T15:43:11.764Z] FFmpeg Err: Input #0, mp3, from 'C:\Users\fullm\Downloads\dubverse-saas\tmp\uploads\1c2e7c90-c68c-497b-96dc-a81b0f0db542\audio.mp3':
  Metadata:
    major_brand     : mp42
    minor_version   : 0
    compatible_brands: isommp42
    encoder         : Lavf60.16.100
  Duration: 00:00:33.33, start: 0.025057, bitrate: 128 kb/s
  Stream #0:0: Audio: mp3, 44100 Hz, stereo, fltp, 128 kb/s
    Metadata:
      encoder         : Lavc60.31

[2026-03-03T15:43:11.768Z] FFmpeg Err: [mp3 @ 000001fe9b4bdac0] Estimating duration from bitrate, this may be inaccurate
Input #1, mp3, from 'C:\Users\fullm\Downloads\dubverse-saas\tmp\uploads\1c2e7c90-c68c-497b-96dc-a81b0f0db542\segments\seg_0.mp3':
  Duration: 00:00:07.58, start: 0.000000, bitrate: 48 kb/s
  Stream #1:0: Audio: mp3, 24000 Hz, mono, fltp, 48 kb/s
[mp3 @ 000001fe9b4abe40] Estimating duration from bitrate, this may be inaccurate
Input #2, mp3, from 'C:\Users\fullm\Downloads\dubverse-saas\tmp\uploads\1c2e7c90-c68c-497b-96dc-a81b0f0db542\segments\seg_1.mp3':
  Duration: 00:00:05.11, start: 0.000000, bitrate: 48 kb/s
  Stream #2:0: Audio: mp3, 24000 Hz, mono, fltp, 48 kb/s

[2026-03-03T15:43:11.771Z] FFmpeg Err: [mp3 @ 000001fe9b4ef300] Estimating duration from bitrate, this may be inaccurate
Input #3, mp3, from 'C:\Users\fullm\Downloads\dubverse-saas\tmp\uploads\1c2e7c90-c68c-497b-96dc-a81b0f0db542\segments\seg_2.mp3':
  Duration: 00:00:08.74, start: 0.000000, bitrate: 48 kb/s
  Stream #3:0: Audio: mp3, 24000 Hz, mono, fltp, 48 kb/s
[mp3 @ 000001fe9b4f5240] Estimating duration from bitrate, this may be inaccurate
Input #4, mp3, from 'C:\Users\fullm\Downloads\dubverse-saas\tmp\uploads\1c2e7c90-c68c-497b-96dc-a81b0f0db542\segments\seg_3.mp3':
  Duration: 00:00:12.55, start: 0.000000, bitrate: 48 kb/s
  Stream #4:0: Audio: mp3, 24000 Hz, mono, fltp, 48 kb/s
[mp3 @ 000001fe9b527700] Estimating duration from bitrate, this may be inaccurate
Input #5, mp3, from 'C:\Users\fullm\Downloads\dubverse-saas\tmp\uploads\1c2e7c90-c68c-497b-96dc-a81b0f0db542\segments\seg_4.mp3':
  Duration: 00:00:09.41, start: 0.000000, bitrate: 48 kb/s
  Stream #5:0: Audio: mp3, 24000 Hz, mono, fltp, 48 kb/s

[2026-03-03T15:43:11.775Z] FFmpeg Err: [mp3 @ 000001fe9b5681c0] Estimating duration from bitrate, this may be inaccurate
Input #6, mp3, from 'C:\Users\fullm\Downloads\dubverse-saas\tmp\uploads\1c2e7c90-c68c-497b-96dc-a81b0f0db542\segments\seg_5.mp3':
  Duration: 00:00:04.63, start: 0.000000, bitrate: 48 kb/s
  Stream #6:0: Audio: mp3, 24000 Hz, mono, fltp, 48 kb/s
[mp3 @ 000001fe9b5547c0] Estimating duration from bitrate, this may be inaccurate
Input #7, mp3, from 'C:\Users\fullm\Downloads\dubverse-saas\tmp\uploads\1c2e7c90-c68c-497b-96dc-a81b0f0db542\segments\seg_6.mp3':
  Duration: 00:00:02.98, start: 0.000000, bitrate: 48 kb/s
  Stream #7:0: Audio: mp3, 24000 Hz, mono, fltp, 48 kb/s

[2026-03-03T15:43:11.779Z] FFmpeg Err: Stream mapping:
  Stream #0:0 (mp3float) -> aformat:default
  Stream #1:0 (mp3float) -> aformat:default
  Stream #2:0 (mp3float) -> aformat:default
  Stream #3:0 (mp3float) -> aformat:default
  Stream #4:0 (mp3float) -> aformat:default
  Stream #5:0 (mp3float) -> aformat:default
  Stream #6:0 (mp3float) -> aformat:default
  Stream #7:0 (mp3float) -> aformat:default
  volume:default -> Stream #0:0 (libmp3lame)

[2026-03-03T15:43:11.800Z] FFmpeg Err: Output #0, mp3, to 'C:\Users\fullm\Downloads\dubverse-saas\tmp\uploads\1c2e7c90-c68c-497b-96dc-a81b0f0db542\dubbed_audio.mp3':
  Metadata:
    major_brand     : mp42
    minor_version   : 0
    compatible_brands: isommp42
    TSSE            : Lavf60.16.100
  Stream #0:0: Audio: mp3, 44100 Hz, stereo, fltp, 192 kb/s
    Metadata:
      encoder         : Lavc60.31.102 libmp3lame

[2026-03-03T15:43:11.804Z] FFmpeg Err: size=       0kB time=N/A bitrate=N/A speed=N/A    
[2026-03-03T15:43:12.285Z] FFmpeg Err: size=     256kB time=00:00:15.85 bitrate= 132.3kbits/s speed=31.3x    
[2026-03-03T15:43:12.785Z] FFmpeg Err: size=     512kB time=00:00:25.83 bitrate= 162.3kbits/s speed=25.7x    
[2026-03-03T15:43:13.142Z] FFmpeg Err: [out#0/mp3 @ 000001fe9b5a6300] video:0kB audio:781kB subtitle:0kB other streams:0kB global headers:0kB muxing overhead: 0.095503%
size=     782kB time=00:00:33.28 bitrate= 192.5kbits/s speed=24.4x    

[2026-03-03T15:43:13.626Z] Starting final video/audio muxing...
[2026-03-03T15:43:13.630Z] Running FFmpeg: C:\Users\fullm\Downloads\dubverse-saas\backend\node_modules\ffmpeg-static\ffmpeg.exe -i C:\Users\fullm\Downloads\dubverse-saas\tmp\uploads\1c2e7c90-c68c-497b-96dc-a81b0f0db542\video.mp4 -i C:\Users\fullm\Downloads\dubverse-saas\tmp\uploads\1c2e7c90-c68c-497b-96dc-a81b0f0db542\dubbed_audio.mp3 -map 0:v:0 -map 1:a:0 -c:v copy -c:a aac -b:a 192k -shortest -y C:\Users\fullm\Downloads\dubverse-saas\tmp\uploads\1c2e7c90-c68c-497b-96dc-a81b0f0db542\final_dubbed.mp4
[2026-03-03T15:43:13.753Z] FFmpeg Err: Input #0, mov,mp4,m4a,3gp,3g2,mj2, from 'C:\Users\fullm\Downloads\dubverse-saas\tmp\uploads\1c2e7c90-c68c-497b-96dc-a81b0f0db542\video.mp4':
  Metadata:
    major_brand     : mp42
    minor_version   : 0
    compatible_brands: isommp42
    creation_time   : 2026-03-02T18:15:48.000000Z
    encoder         : Google
  Duration: 00:00:33.30, start: 0.000000, bitrate: 314 kb/s
  Stream #0:0[0x1
[2026-03-03T15:43:13.756Z] FFmpeg Err: ](und): Video: h264 (Main) (avc1 / 0x31637661), yuv420p(tv, bt709, progressive), 360x640 [SAR 1:1 DAR 9:16], 264 kb/s, 25 fps, 25 tbr, 12800 tbn (default)
    Metadata:
      creation_time   : 2026-03-02T18:15:48.000000Z
      handler_name    : ISO Media file produced by Google Inc. Created on: 03/02/2026.
      vendor_id       : [0][0][0][0]
  Stream #0:1[0x2](eng): Audio: aac (HE-AAC) (mp4a / 0x6134706D), 44100 Hz, stereo, fltp, 48 kb/s (default)
    Metadata:
      creation_time   : 2026-03-02T18:15:48.000000Z
      handler_name    : ISO Media file produced by Google Inc. Created on: 03/02/2026.
      vendor_id       : [0][0][0][0]
Input #1, mp3, from 'C:\Users\fullm\Downloads\dubverse-saas\tmp\uploads\1c2e7c90-c68c-497b-96dc-a81b0f0db542\dubbed_audio.mp3':
  Metadata:
    major_brand     : mp42
    minor_version   : 0
    compatible_brands: isommp42
    encoder         : Lavf60.16.100
  Duration: 00:00:33.33, start: 0.025057, bitrate: 192 kb/s
  Stream #1:0: Audio: mp3, 44100 Hz, stereo, fltp, 192 kb/s
    Metadata:
      encoder         : Lavc60.31

[2026-03-03T15:43:13.760Z] FFmpeg Err: Stream mapping:
  Stream #0:0 -> #0:0 (copy)
  Stream #1:0 -> #0:1 (mp3 (mp3float) -> aac (native))

[2026-03-03T15:43:13.771Z] FFmpeg Err: Output #0, mp4, to 'C:\Users\fullm\Downloads\dubverse-saas\tmp\uploads\1c2e7c90-c68c-497b-96dc-a81b0f0db542\final_dubbed.mp4':
  Metadata:
    major_brand     : mp42
    minor_version   : 0
    compatible_brands: isommp42
    encoder         : Lavf60.16.100

[2026-03-03T15:43:13.775Z] FFmpeg Err:   Stream #0:0(und): Video: h264 (Main) (avc1 / 0x31637661), yuv420p(tv, bt709, progressive), 360x640 [SAR 1:1 DAR 9:16], q=2-31, 264 kb/s, 25 fps, 25 tbr, 12800 tbn (default)
    Metadata:
      creation_time   : 2026-03-02T18:15:48.000000Z
      handler_name    : ISO Media file produced by Google Inc. Created on: 03/02/2026.
      vendor_id       : [0][0][0][0]
  Stream #0:1: Audio: aac (LC) (mp4a / 0x6134706D), 44100 Hz, stereo, fltp, 192 kb/s
    Metadata:
      encoder         : Lavc60.31.102 aac
size=       0kB time=N/A bitrate=N/A speed=N/A    
[2026-03-03T15:43:14.262Z] FFmpeg Err: size=       0kB time=00:00:04.60 bitrate=   0.1kbits/s speed=9.14x    
[2026-03-03T15:43:14.774Z] FFmpeg Err: size=     512kB time=00:00:13.00 bitrate= 322.7kbits/s speed=12.8x    
[2026-03-03T15:43:15.275Z] FFmpeg Err: size=     768kB time=00:00:18.00 bitrate= 349.5kbits/s speed=11.9x    
[2026-03-03T15:43:15.776Z] FFmpeg Err: size=    1280kB time=00:00:25.00 bitrate= 419.4kbits/s speed=12.4x    
[2026-03-03T15:43:16.285Z] FFmpeg Err: size=    1536kB time=00:00:32.28 bitrate= 389.8kbits/s speed=12.8x    
[2026-03-03T15:43:16.368Z] FFmpeg Err: [out#0/mp4 @ 0000029fe4c3e100] video:1071kB audio:702kB subtitle:0kB other streams:0kB global headers:0kB muxing overhead: 1.384656%
size=    1798kB time=00:00:33.25 bitrate= 442.9kbits/s speed=12.7x    

[2026-03-03T15:43:16.371Z] FFmpeg Err: [aac @ 0000029fe48a24c0] Qavg: 13547.564

[2026-03-03T15:43:16.816Z] Pipeline finished successfully!
